<?xml version="1.0" encoding="UTF-8"?>
<!-- Generated by Pixelmator Pro 3.7 -->
<svg width="1000" height="250" viewBox="0 0 1000 250" xmlns="http://www.w3.org/2000/svg">
    <path id="asboy2035" fill="#ffffff" fill-rule="evenodd" stroke="none" d="M 474.346985 176.524994 C 489.901001 176.524994 499.899994 166.626999 499.899994 151.274994 C 499.899994 136.630005 490.809998 127.136002 476.872009 127.136002 C 471.519012 127.136002 466.165985 128.95401 463.540009 131.681 L 465.256989 110.268997 L 492.627991 110.268997 L 492.627991 102.794998 L 457.78299 102.794998 L 455.561005 138.347 L 461.419006 140.165009 C 464.045013 136.630005 469.498993 134.205994 474.649994 134.205994 C 484.851013 134.205994 491.516998 141.074005 491.516998 151.477005 C 491.516998 162.182999 484.648987 169.050995 474.246002 169.050995 C 463.944 169.050995 456.671997 162.082001 456.166992 151.779999 L 448.087006 153.395996 C 448.894989 167.233002 459.398987 176.524994 474.346985 176.524994 Z M 421.221008 176.524994 C 435.664001 176.524994 445.86499 167.535995 445.86499 155.214005 C 445.86499 146.628998 440.815002 140.063995 431.623993 136.932999 L 431.623993 136.731003 C 437.987 134.40799 442.027008 128.044998 442.027008 120.77301 C 442.027008 109.360001 433.139008 101.078003 420.917999 101.078003 C 407.384003 101.078003 397.687988 111.076996 397.485992 125.014999 L 405.970001 125.924004 C 406.071014 115.824005 412.333008 108.552002 420.816986 108.552002 C 428.088989 108.552002 433.441986 114.106995 433.441986 121.78299 C 433.441986 128.449005 429.300995 133.39801 422.63501 133.600006 L 417.888 133.802002 L 417.888 140.367004 L 423.34201 140.569 C 430.209991 140.770996 437.381012 146.628998 437.381012 154.910995 C 437.381012 163.091995 430.513 169.050995 420.816986 169.050995 C 409.707001 169.050995 402.031006 160.768997 401.424988 149.457001 L 393.64801 151.274994 C 394.455994 166.020996 406.071014 176.524994 421.221008 176.524994 Z M 358.398987 176.524994 C 376.377014 176.524994 388.597992 160.466003 388.597992 138.447998 C 388.597992 116.32901 376.377014 100.269989 358.398987 100.269989 C 340.320007 100.269989 328.098999 116.32901 328.098999 138.447998 C 328.098999 160.466003 340.320007 176.524994 358.398987 176.524994 Z M 358.398987 169.050995 C 345.269012 169.050995 336.481995 156.123001 336.481995 138.447998 C 336.481995 120.671997 345.269012 107.744003 358.398987 107.744003 C 371.528992 107.744003 380.214996 120.671997 380.214996 138.447998 C 380.214996 156.123001 371.528992 169.050995 358.398987 169.050995 Z M 323.049011 174 L 323.049011 166.526001 L 283.255005 166.526001 C 283.255005 158.041992 286.890991 152.890991 297.09201 147.134003 L 306.080994 142.084 C 317.089996 135.923004 321.028992 130.266998 321.028992 121.177002 C 321.028992 109.057007 312.140991 100.269989 299.515991 100.269989 C 285.981995 100.269989 275.983002 110.167999 275.477997 124.307999 L 283.76001 125.924004 C 284.164001 114.106995 290.729004 107.744003 299.313995 107.744003 C 307.191986 107.744003 312.545013 113.197998 312.545013 120.671997 C 312.545013 127.035004 309.615997 131.175995 301.334015 136.024002 L 293.052002 140.770996 C 279.720001 148.346008 274.872009 155.315002 274.770996 168.041 L 274.770996 174 Z M 136.602997 176.020004 C 151.550995 176.020004 162.559998 164.404999 162.559998 148.548004 C 162.559998 132.589996 151.550995 120.975006 136.703995 120.975006 C 128.220001 120.975006 121.351997 124.914001 116.907997 131.580002 L 116.806999 131.580002 L 116.806999 99.764999 L 109.130997 99.764999 L 109.130997 174 L 115.796997 174 L 116.605003 165.212997 L 116.706001 165.212997 C 121.049004 171.979996 128.018005 176.020004 136.602997 176.020004 Z M 135.694 169.050995 C 124.684998 169.050995 116.605003 160.061996 116.605003 148.548004 C 116.605003 136.932999 124.684998 128.044998 135.694 128.044998 C 146.804001 128.044998 154.783005 136.932999 154.783005 148.548004 C 154.783005 160.264008 146.703003 169.050995 135.694 169.050995 Z M 268.710999 172.990005 C 268.710999 188.240997 258.610992 197.229996 242.653 197.229996 C 230.028 197.229996 220.634995 191.977997 216.695999 183.89801 L 223.261002 179.45401 C 226.492996 185.917999 233.360992 190.261002 242.451004 190.261002 C 253.964996 190.261002 261.035004 183.796997 261.035004 172.990005 L 261.035004 168.546005 L 260.93399 168.546005 C 257.398987 174.505005 250.531006 178.040009 243.460999 178.040009 C 230.735001 178.040009 222.453003 168.546005 222.453003 155.516998 L 222.453003 122.995003 L 230.128998 122.995003 L 230.128998 155.516998 C 230.128998 164.606995 235.481995 171.070999 244.369995 171.070999 C 253.257996 171.070999 260.93399 164.102005 260.93399 154.406006 L 260.93399 122.995003 L 268.609985 122.995003 L 268.710999 172.990005 Z M 219.018997 148.548004 C 219.018997 165.112 208.212006 176.020004 191.748993 176.020004 C 175.386993 176.020004 164.580002 165.112 164.580002 148.548004 C 164.580002 131.882996 175.386993 120.975006 191.748993 120.975006 C 208.212006 120.975006 219.018997 131.882996 219.018997 148.548004 Z M 172.255997 148.548004 C 172.255997 160.971008 179.932007 169.050995 191.748993 169.050995 C 203.565994 169.050995 211.242004 160.971008 211.242004 148.548004 C 211.242004 136.125 203.565994 128.044998 191.748993 128.044998 C 179.932007 128.044998 172.255997 136.125 172.255997 148.548004 Z M 46.511002 165.515991 C 42.875 171.979996 35.805 176.020004 26.715 176.020004 C 15.1 176.020004 7.02 169.757996 7.02 160.667999 C 7.02 152.487 13.484 145.921997 30.048 143.902008 L 42.673 142.386993 C 45.198002 142.084 46.813999 140.669998 46.813999 138.447998 C 46.813999 132.084991 40.754002 127.944 31.865999 127.944 C 22.271 127.944 15.504 134.105011 15.1 140.165009 L 8.131001 137.235992 C 9.04 128.852997 18.938 120.975006 32.168999 120.975006 C 45.198002 120.975006 54.389 128.247009 54.389 139.660004 L 54.389 165.515991 C 54.389 167.535995 55.5 168.949997 57.116001 168.949997 C 58.529999 168.949997 60.146 167.738007 61.257 165.919998 L 65.397995 170.768005 C 63.277 173.899002 59.035 176.020004 55.096001 176.020004 C 50.146999 176.020004 47.015999 172.485001 46.713001 167.839005 L 46.612 165.515991 L 46.511002 165.515991 Z M 106.100998 159.354996 C 106.100998 168.949997 96.808998 176.020004 84.487 176.020004 C 71.761002 176.020004 61.257 169.455002 60.348 158.546997 L 67.923004 157.031998 C 68.528999 164.102005 75.397003 169.050995 84.487 169.050995 C 92.466003 169.050995 98.626999 165.313995 98.626999 160.061996 C 98.626999 156.123001 94.889999 153.699005 86.305 151.981995 L 78.224998 150.365997 C 67.619995 148.143997 63.075001 143.902008 63.075001 136.428009 C 63.175999 127.540001 71.054001 120.975006 81.961998 120.975006 C 92.667999 120.975006 100.647003 126.732002 102.566002 135.014008 L 95.193001 137.033997 C 94.486 131.681 89.133003 127.741997 81.861 127.741997 C 75.397003 127.741997 70.650002 131.681 70.549004 136.024002 C 70.549004 139.761002 73.579002 141.882004 80.649002 143.397003 L 88.931 145.013 C 100.949997 147.537994 106.100998 151.779999 106.100998 159.354996 Z M 14.696 160.567001 C 14.696 165.718002 20.250999 169.050995 28.028 169.050995 C 38.734001 169.050995 46.612 162.082001 46.612 152.18399 L 46.612 148.548004 L 30.856001 150.466995 C 18.534 151.981995 14.696 155.921005 14.696 160.567001 Z"/>
    <path id="Guides" fill="#ffffff" fill-rule="evenodd" stroke="none" d="M 950.599976 178.320007 C 972.380005 178.320007 982.807983 171.059998 982.807983 158.123993 C 982.807983 145.320007 972.644043 140.171997 961.952026 137.664001 L 946.375977 133.968002 C 942.151978 132.912003 939.776001 131.328003 939.776001 128.951996 C 939.776001 126.18 942.679993 124.727997 947.959961 124.727997 C 955.747986 124.727997 959.179993 127.5 959.179993 133.307999 L 981.752014 133.307999 C 981.752014 117.071991 968.68396 108.888 947.828003 108.888 C 928.687988 108.888 917.203979 115.751999 917.203979 128.688004 C 917.203979 140.567993 926.971985 145.584 934.099976 147.432007 L 955.088013 153.108002 C 958.52002 154.031998 960.104004 155.484009 960.104004 157.727997 C 960.104004 160.895996 957.596008 162.347992 951.127991 162.347992 C 941.888 162.347992 937.927979 159.444 937.927979 152.843994 L 915.223999 152.843994 C 915.223999 169.740005 927.235962 178.320007 950.599976 178.320007 Z M 841.436035 143.339996 C 841.436035 164.195999 855.427979 178.320007 878 178.320007 C 898.592041 178.320007 911.660034 168.156006 913.507996 153.372009 L 891.067993 153.372009 C 889.747986 158.520004 884.995972 161.291992 878 161.291992 C 869.81604 161.291992 864.932007 156.671997 864.140015 148.356003 L 913.375977 148.356003 L 913.375977 142.416 C 913.375977 121.428009 900.044006 108.888 876.94397 108.888 C 856.219971 108.888 841.436035 121.824005 841.436035 143.339996 Z M 864.140015 136.73999 C 864.667969 129.347992 869.81604 125.255997 877.604004 125.255997 C 885.523987 125.255997 890.671997 129.347992 891.332031 136.73999 Z M 646.604004 178.320007 C 660.859985 178.320007 669.176025 168.81601 671.815979 156.936005 L 677.359985 156.936005 L 673.135986 169.475998 L 673.135986 177 L 695.708008 177 L 695.708008 110.208008 L 673.135986 110.208008 L 673.135986 134.363998 C 673.135986 153.240005 665.744019 158.388 654.787964 158.388 C 644.755981 158.388 641.455994 154.031998 641.455994 142.019989 L 641.455994 110.208008 L 618.752014 110.208008 L 618.752014 145.716003 C 618.752014 166.835999 629.312012 178.320007 646.604004 178.320007 Z M 559.219971 178.716003 C 587.335999 178.716003 588.391968 157.992004 587.731995 153.899994 L 593.804016 153.899994 L 589.184021 170.664001 L 589.184021 177 L 613.075989 177 L 613.075989 136.872009 C 613.075989 128.820007 608.323975 124.332001 600.536011 124.332001 L 566.348022 124.332001 L 566.348022 142.679993 L 588.788025 142.679993 C 587.864014 151.787994 579.151978 157.727997 565.424011 157.727997 C 547.471985 157.727997 539.552002 147.300003 539.552002 130.800003 C 539.552002 113.244003 548.659973 102.81601 564.104004 102.81601 C 574.796021 102.81601 583.507996 108.492004 585.09198 117.20401 L 609.776001 117.20401 C 606.608032 96.216003 587.468018 82.091995 562.783997 82.091995 C 533.744019 82.091995 514.736023 100.835999 514.736023 131.195999 C 514.736023 159.839996 531.763977 178.716003 559.219971 178.716003 Z M 812.791992 161.160004 C 809.359985 169.872009 803.420044 178.320007 786.787964 178.320007 C 767.252014 178.320007 758.011963 162.216003 758.011963 143.472 C 758.011963 124.860001 767.252014 108.888 786.787964 108.888 C 803.420044 108.888 809.359985 117.335999 812.791992 125.916 L 818.468018 125.916 L 814.112 113.376007 L 814.112 79.979996 L 836.68396 79.979996 L 836.68396 177 L 814.112 177 L 814.112 173.832001 L 818.468018 161.160004 L 812.791992 161.160004 Z M 758.804016 177 L 700.328003 177 L 700.328003 157.067993 L 719.072021 157.067993 L 719.072021 130.139999 L 702.703979 130.139999 L 702.703979 110.208008 L 728.44397 110.208008 C 735.703979 110.208008 739.927979 113.903992 739.927979 121.29599 L 739.927979 157.067993 L 758.804016 157.067993 L 758.804016 177 Z M 797.47998 128.820007 C 786.391968 128.820007 780.583984 133.175995 780.583984 143.472 C 780.583984 153.899994 786.391968 158.388 797.47998 158.388 C 808.567993 158.388 814.112 154.031998 814.112 143.472 C 814.112 133.175995 808.567993 128.820007 797.47998 128.820007 Z M 727.916016 104.399994 C 719.864014 104.399994 714.716003 100.835999 714.716003 93.048004 C 714.716003 85.391998 719.864014 81.695999 727.916016 81.695999 C 735.968018 81.695999 741.511963 85.391998 741.511963 93.048004 C 741.511963 100.835999 735.968018 104.399994 727.916016 104.399994 Z"/>
</svg>
