<?xml version="1.0" encoding="UTF-8"?>
<!-- Generated by Pixelmator Pro 3.7 -->
<svg width="1000" height="250" viewBox="0 0 1000 250" xmlns="http://www.w3.org/2000/svg">
    <path id="asboy2035" fill="#000000" fill-rule="evenodd" stroke="none" d="M 479.346985 163.524994 C 494.901001 163.524994 504.899994 153.626999 504.899994 138.274994 C 504.899994 123.629997 495.809998 114.136002 481.872009 114.136002 C 476.519012 114.136002 471.165985 115.95401 468.540009 118.681 L 470.256989 97.268997 L 497.627991 97.268997 L 497.627991 89.794998 L 462.78299 89.794998 L 460.561005 125.347 L 466.419006 127.165001 C 469.045013 123.629997 474.498993 121.205994 479.649994 121.205994 C 489.851013 121.205994 496.516998 128.074005 496.516998 138.477005 C 496.516998 149.182999 489.648987 156.050995 479.246002 156.050995 C 468.944 156.050995 461.671997 149.082001 461.166992 138.779999 L 453.087006 140.395996 C 453.894989 154.233002 464.398987 163.524994 479.346985 163.524994 Z M 426.221008 163.524994 C 440.664001 163.524994 450.86499 154.535995 450.86499 142.214005 C 450.86499 133.628998 445.815002 127.064003 436.623993 123.932999 L 436.623993 123.731003 C 442.987 121.40799 447.027008 115.044998 447.027008 107.77301 C 447.027008 96.360001 438.139008 88.078003 425.917999 88.078003 C 412.384003 88.078003 402.687988 98.076996 402.485992 112.014999 L 410.970001 112.924011 C 411.071014 102.824005 417.333008 95.552002 425.816986 95.552002 C 433.088989 95.552002 438.441986 101.106995 438.441986 108.78299 C 438.441986 115.449005 434.300995 120.39801 427.63501 120.600006 L 422.888 120.802002 L 422.888 127.366997 L 428.34201 127.569 C 435.209991 127.771004 442.381012 133.628998 442.381012 141.910995 C 442.381012 150.091995 435.513 156.050995 425.816986 156.050995 C 414.707001 156.050995 407.031006 147.768997 406.424988 136.457001 L 398.64801 138.274994 C 399.455994 153.020996 411.071014 163.524994 426.221008 163.524994 Z M 363.398987 163.524994 C 381.377014 163.524994 393.597992 147.466003 393.597992 125.447998 C 393.597992 103.32901 381.377014 87.269989 363.398987 87.269989 C 345.320007 87.269989 333.098999 103.32901 333.098999 125.447998 C 333.098999 147.466003 345.320007 163.524994 363.398987 163.524994 Z M 363.398987 156.050995 C 350.269012 156.050995 341.481995 143.123001 341.481995 125.447998 C 341.481995 107.671997 350.269012 94.744003 363.398987 94.744003 C 376.528992 94.744003 385.214996 107.671997 385.214996 125.447998 C 385.214996 143.123001 376.528992 156.050995 363.398987 156.050995 Z M 328.049011 161 L 328.049011 153.526001 L 288.255005 153.526001 C 288.255005 145.041992 291.890991 139.890991 302.09201 134.134003 L 311.080994 129.084 C 322.089996 122.922997 326.028992 117.266998 326.028992 108.177002 C 326.028992 96.057007 317.140991 87.269989 304.515991 87.269989 C 290.981995 87.269989 280.983002 97.167999 280.477997 111.307999 L 288.76001 112.924011 C 289.164001 101.106995 295.729004 94.744003 304.313995 94.744003 C 312.191986 94.744003 317.545013 100.197998 317.545013 107.671997 C 317.545013 114.035004 314.615997 118.175995 306.334015 123.024002 L 298.052002 127.771004 C 284.720001 135.346008 279.872009 142.315002 279.770996 155.041 L 279.770996 161 Z M 141.602997 163.020004 C 156.550995 163.020004 167.559998 151.404999 167.559998 135.548004 C 167.559998 119.589996 156.550995 107.975006 141.703995 107.975006 C 133.220001 107.975006 126.351997 111.914001 121.907997 118.580002 L 121.806999 118.580002 L 121.806999 86.764999 L 114.130997 86.764999 L 114.130997 161 L 120.796997 161 L 121.605003 152.212997 L 121.706001 152.212997 C 126.049004 158.979996 133.018005 163.020004 141.602997 163.020004 Z M 140.694 156.050995 C 129.684998 156.050995 121.605003 147.061996 121.605003 135.548004 C 121.605003 123.932999 129.684998 115.044998 140.694 115.044998 C 151.804001 115.044998 159.783005 123.932999 159.783005 135.548004 C 159.783005 147.264008 151.703003 156.050995 140.694 156.050995 Z M 273.710999 159.990005 C 273.710999 175.240997 263.610992 184.230011 247.653 184.230011 C 235.028 184.230011 225.634995 178.977997 221.695999 170.89801 L 228.261002 166.45401 C 231.492996 172.917999 238.360992 177.261002 247.451004 177.261002 C 258.964996 177.261002 266.035004 170.796997 266.035004 159.990005 L 266.035004 155.546005 L 265.93399 155.546005 C 262.398987 161.505005 255.531006 165.040009 248.460999 165.040009 C 235.735001 165.040009 227.453003 155.546005 227.453003 142.516998 L 227.453003 109.994995 L 235.128998 109.994995 L 235.128998 142.516998 C 235.128998 151.606995 240.481995 158.070999 249.369995 158.070999 C 258.257996 158.070999 265.93399 151.102005 265.93399 141.406006 L 265.93399 109.994995 L 273.609985 109.994995 L 273.710999 159.990005 Z M 224.018997 135.548004 C 224.018997 152.112 213.212006 163.020004 196.748993 163.020004 C 180.386993 163.020004 169.580002 152.112 169.580002 135.548004 C 169.580002 118.882996 180.386993 107.975006 196.748993 107.975006 C 213.212006 107.975006 224.018997 118.882996 224.018997 135.548004 Z M 177.255997 135.548004 C 177.255997 147.971008 184.932007 156.050995 196.748993 156.050995 C 208.565994 156.050995 216.242004 147.971008 216.242004 135.548004 C 216.242004 123.125 208.565994 115.044998 196.748993 115.044998 C 184.932007 115.044998 177.255997 123.125 177.255997 135.548004 Z M 51.511002 152.515991 C 47.875 158.979996 40.805 163.020004 31.715 163.020004 C 20.1 163.020004 12.02 156.757996 12.02 147.667999 C 12.02 139.487 18.484001 132.921997 35.048 130.902008 L 47.673 129.386993 C 50.198002 129.084 51.813999 127.669998 51.813999 125.447998 C 51.813999 119.084991 45.754002 114.944 36.865997 114.944 C 27.271 114.944 20.504 121.105011 20.1 127.165001 L 13.131001 124.236 C 14.04 115.852997 23.938 107.975006 37.168999 107.975006 C 50.198002 107.975006 59.389 115.247009 59.389 126.660004 L 59.389 152.515991 C 59.389 154.535995 60.5 155.949997 62.116001 155.949997 C 63.529999 155.949997 65.145996 154.738007 66.257004 152.919998 L 70.397995 157.768005 C 68.277 160.899002 64.035004 163.020004 60.096001 163.020004 C 55.146999 163.020004 52.015999 159.485001 51.713001 154.839005 L 51.612 152.515991 L 51.511002 152.515991 Z M 111.100998 146.354996 C 111.100998 155.949997 101.808998 163.020004 89.487 163.020004 C 76.761002 163.020004 66.257004 156.455002 65.348 145.546997 L 72.923004 144.031998 C 73.528999 151.102005 80.397003 156.050995 89.487 156.050995 C 97.466003 156.050995 103.626999 152.313995 103.626999 147.061996 C 103.626999 143.123001 99.889999 140.699005 91.305 138.981995 L 83.224998 137.365997 C 72.619995 135.143997 68.074997 130.902008 68.074997 123.428001 C 68.175995 114.540009 76.054001 107.975006 86.961998 107.975006 C 97.667999 107.975006 105.647003 113.731995 107.566002 122.014 L 100.193001 124.033997 C 99.486 118.681 94.133003 114.742004 86.861 114.742004 C 80.397003 114.742004 75.650002 118.681 75.549004 123.024002 C 75.549004 126.761002 78.579002 128.882004 85.649002 130.397003 L 93.931 132.013 C 105.949997 134.537994 111.100998 138.779999 111.100998 146.354996 Z M 19.695999 147.567001 C 19.695999 152.718002 25.250999 156.050995 33.028 156.050995 C 43.734001 156.050995 51.612 149.082001 51.612 139.18399 L 51.612 135.548004 L 35.856003 137.466995 C 23.534 138.981995 19.695999 142.921005 19.695999 147.567001 Z"/>
    <path id="Guides" fill="#000000" fill-rule="evenodd" stroke="none" d="M 955.599976 165.320007 C 977.380005 165.320007 987.807983 158.059998 987.807983 145.123993 C 987.807983 132.320007 977.644043 127.171997 966.952026 124.664001 L 951.375977 120.968002 C 947.151978 119.912003 944.776001 118.328003 944.776001 115.951996 C 944.776001 113.179993 947.679993 111.727997 952.959961 111.727997 C 960.747986 111.727997 964.179993 114.5 964.179993 120.307999 L 986.752014 120.307999 C 986.752014 104.071991 973.68396 95.888 952.828003 95.888 C 933.687988 95.888 922.203979 102.751999 922.203979 115.688004 C 922.203979 127.568001 931.971985 132.584 939.099976 134.432007 L 960.088013 140.108002 C 963.52002 141.031998 965.104004 142.484009 965.104004 144.727997 C 965.104004 147.895996 962.596008 149.347992 956.127991 149.347992 C 946.888 149.347992 942.927979 146.444 942.927979 139.843994 L 920.223999 139.843994 C 920.223999 156.740005 932.235962 165.320007 955.599976 165.320007 Z M 846.436035 130.339996 C 846.436035 151.195999 860.427979 165.320007 883 165.320007 C 903.592041 165.320007 916.660034 155.156006 918.507996 140.372009 L 896.067993 140.372009 C 894.747986 145.520004 889.995972 148.291992 883 148.291992 C 874.81604 148.291992 869.932007 143.671997 869.140015 135.356003 L 918.375977 135.356003 L 918.375977 129.416 C 918.375977 108.428009 905.044006 95.888 881.94397 95.888 C 861.219971 95.888 846.436035 108.824005 846.436035 130.339996 Z M 869.140015 123.739998 C 869.667969 116.347992 874.81604 112.255997 882.604004 112.255997 C 890.523987 112.255997 895.671997 116.347992 896.332031 123.739998 Z M 651.604004 165.320007 C 665.859985 165.320007 674.176025 155.81601 676.815979 143.936005 L 682.359985 143.936005 L 678.135986 156.475998 L 678.135986 164 L 700.708008 164 L 700.708008 97.208008 L 678.135986 97.208008 L 678.135986 121.363998 C 678.135986 140.240005 670.744019 145.388 659.787964 145.388 C 649.755981 145.388 646.455994 141.031998 646.455994 129.019989 L 646.455994 97.208008 L 623.752014 97.208008 L 623.752014 132.716003 C 623.752014 153.835999 634.312012 165.320007 651.604004 165.320007 Z M 564.219971 165.716003 C 592.335999 165.716003 593.391968 144.992004 592.731995 140.899994 L 598.804016 140.899994 L 594.184021 157.664001 L 594.184021 164 L 618.075989 164 L 618.075989 123.872002 C 618.075989 115.820007 613.323975 111.332001 605.536011 111.332001 L 571.348022 111.332001 L 571.348022 129.679993 L 593.788025 129.679993 C 592.864014 138.787994 584.151978 144.727997 570.424011 144.727997 C 552.471985 144.727997 544.552002 134.300003 544.552002 117.800003 C 544.552002 100.244003 553.659973 89.81601 569.104004 89.81601 C 579.796021 89.81601 588.507996 95.492004 590.09198 104.20401 L 614.776001 104.20401 C 611.608032 83.216003 592.468018 69.091995 567.783997 69.091995 C 538.744019 69.091995 519.736023 87.835999 519.736023 118.195999 C 519.736023 146.839996 536.763977 165.716003 564.219971 165.716003 Z M 817.791992 148.160004 C 814.359985 156.872009 808.420044 165.320007 791.787964 165.320007 C 772.252014 165.320007 763.011963 149.216003 763.011963 130.472 C 763.011963 111.860001 772.252014 95.888 791.787964 95.888 C 808.420044 95.888 814.359985 104.335999 817.791992 112.916 L 823.468018 112.916 L 819.112 100.376007 L 819.112 66.979996 L 841.68396 66.979996 L 841.68396 164 L 819.112 164 L 819.112 160.832001 L 823.468018 148.160004 L 817.791992 148.160004 Z M 763.804016 164 L 705.328003 164 L 705.328003 144.067993 L 724.072021 144.067993 L 724.072021 117.139999 L 707.703979 117.139999 L 707.703979 97.208008 L 733.44397 97.208008 C 740.703979 97.208008 744.927979 100.903992 744.927979 108.29599 L 744.927979 144.067993 L 763.804016 144.067993 L 763.804016 164 Z M 802.47998 115.820007 C 791.391968 115.820007 785.583984 120.175995 785.583984 130.472 C 785.583984 140.899994 791.391968 145.388 802.47998 145.388 C 813.567993 145.388 819.112 141.031998 819.112 130.472 C 819.112 120.175995 813.567993 115.820007 802.47998 115.820007 Z M 732.916016 91.399994 C 724.864014 91.399994 719.716003 87.835999 719.716003 80.048004 C 719.716003 72.391998 724.864014 68.695999 732.916016 68.695999 C 740.968018 68.695999 746.511963 72.391998 746.511963 80.048004 C 746.511963 87.835999 740.968018 91.399994 732.916016 91.399994 Z"/>
</svg>
